<svg width="35" height="35" viewBox="0 0 35 35" fill="none" xmlns="http://www.w3.org/2000/svg">
<path d="M27.383 0H7.617C3.40581 0 0 3.43365 0 7.66758V27.3324C0 31.5663 3.40581 35 7.617 35H27.383C31.5874 35 35 31.5663 35 27.3324V7.66758C35 3.43365 31.5874 0 27.383 0ZM30.9321 23.1601C30.9253 27.4624 27.4444 30.9508 23.1513 30.9576H11.8487C7.55558 30.9508 4.07469 27.4624 4.06786 23.1601V11.8331C4.06786 7.53078 7.55558 4.03557 11.8487 4.03557H23.1513C27.4444 4.03557 30.9321 7.53078 30.9321 11.8331V23.1601Z" fill="white" fill-opacity="0.2"/>
<path d="M17.5 12.7291C14.8723 12.7291 12.736 14.8632 12.736 17.5034C12.736 20.1436 14.8654 22.2777 17.5 22.2777C20.1346 22.2777 22.264 20.1436 22.264 17.5034C22.2572 14.8632 20.1277 12.7291 17.5 12.7291Z" fill="white" fill-opacity="0.2"/>
<path d="M23.1445 5.69083H11.8487C8.46334 5.69767 5.71958 8.44733 5.71958 11.8399V23.1669C5.7264 26.5595 8.47016 29.3092 11.8487 29.316H23.1513C26.5367 29.3092 29.2804 26.5595 29.2804 23.1669V11.8331C29.2736 8.44733 26.5298 5.69767 23.1445 5.69083ZM17.5 23.9193C13.9645 23.9193 11.0911 21.0465 11.0979 17.4966C11.0979 13.9535 13.9645 11.0739 17.5068 11.0807C21.0423 11.0807 23.9089 13.9535 23.9089 17.5034C23.9021 21.0465 21.0355 23.9124 17.5 23.9193ZM24.844 11.5048C24.0932 11.5048 23.4789 10.8892 23.4789 10.1368C23.4789 9.3844 24.0932 8.76881 24.844 8.76881C25.5948 8.76881 26.209 9.3844 26.209 10.1368C26.209 10.8892 25.5948 11.5048 24.844 11.5048Z" fill="white" fill-opacity="0.2"/>
</svg>
