<svg width="25" height="25" viewBox="0 0 25 25" fill="none" xmlns="http://www.w3.org/2000/svg">
<path d="M25 3.12467C25 2.49967 24.5833 2.08301 23.9583 2.08301H1.04167C0.416667 2.08301 0 2.49967 0 3.12467V5.20801C0 5.83301 0.416667 6.24967 1.04167 6.24967H23.9583C24.5833 6.24967 25 5.83301 25 5.20801V3.12467Z" fill="#009344"/>
<path d="M25 11.4577C25 10.8327 24.5833 10.416 23.9583 10.416H1.04167C0.416667 10.416 0 10.8327 0 11.4577V13.541C0 14.166 0.416667 14.5827 1.04167 14.5827H23.9583C24.5833 14.5827 25 14.166 25 13.541V11.4577Z" fill="#009344"/>
<path d="M25 19.7917C25 19.1667 24.7223 18.75 24.3056 18.75H9.02782C8.61115 18.75 8.33337 19.1667 8.33337 19.7917V21.875C8.33337 22.5 8.61115 22.9167 9.02782 22.9167H24.3056C24.7223 22.9167 25 22.5 25 21.875V19.7917Z" fill="#009344"/>
</svg>
