<svg width="15" height="8" viewBox="0 0 15 8" fill="none" xmlns="http://www.w3.org/2000/svg">
<mask id="path-1-inside-1_1_1462" fill="white">
<path d="M10.8861 0L10.2179 0.649677L13.1912 3.54062H0V4.45941H13.1912L10.2179 7.35032L10.8861 8L15 3.99998L10.8861 0Z"/>
</mask>
<path d="M10.8861 0L10.2179 0.649677L13.1912 3.54062H0V4.45941H13.1912L10.2179 7.35032L10.8861 8L15 3.99998L10.8861 0Z" fill="#009344"/>
<path d="M10.8861 0L11.5832 -0.716966L10.8861 -1.39479L10.1889 -0.716946L10.8861 0ZM10.2179 0.649677L9.5208 -0.0672698L8.78346 0.64969L9.52081 1.36664L10.2179 0.649677ZM13.1912 3.54062V4.54062H15.6541L13.8883 2.82366L13.1912 3.54062ZM0 3.54062V2.54062H-1V3.54062H0ZM0 4.45941H-1V5.45941H0V4.45941ZM13.1912 4.45941L13.8883 5.17637L15.6541 3.45941H13.1912V4.45941ZM10.2179 7.35032L9.52082 6.63336L8.78345 7.35031L9.5208 8.06727L10.2179 7.35032ZM10.8861 8L10.1889 8.71695L10.8861 9.39479L11.5832 8.71696L10.8861 8ZM15 3.99998L15.6971 4.71695L16.4345 3.99998L15.6971 3.28302L15 3.99998ZM10.8861 0L10.1889 -0.716946L9.5208 -0.0672698L10.2179 0.649677L10.9151 1.36662L11.5832 0.716946L10.8861 0ZM10.2179 0.649677L9.52081 1.36664L12.4941 4.25758L13.1912 3.54062L13.8883 2.82366L10.915 -0.0672828L10.2179 0.649677ZM13.1912 3.54062V2.54062H0V3.54062V4.54062H13.1912V3.54062ZM0 3.54062H-1V4.45941H0H1V3.54062H0ZM0 4.45941V5.45941H13.1912V4.45941V3.45941H0V4.45941ZM13.1912 4.45941L12.4941 3.74245L9.52082 6.63336L10.2179 7.35032L10.915 8.06729L13.8883 5.17637L13.1912 4.45941ZM10.2179 7.35032L9.5208 8.06727L10.1889 8.71695L10.8861 8L11.5832 7.28305L10.9151 6.63338L10.2179 7.35032ZM10.8861 8L11.5832 8.71696L15.6971 4.71695L15 3.99998L14.3029 3.28302L10.189 7.28304L10.8861 8ZM15 3.99998L15.6971 3.28302L11.5832 -0.716966L10.8861 0L10.189 0.716966L14.3029 4.71695L15 3.99998Z" fill="#019344" mask="url(#path-1-inside-1_1_1462)"/>
</svg>
