<svg width="14" height="14" viewBox="0 0 14 14" fill="none" xmlns="http://www.w3.org/2000/svg">
<path d="M7.72917 7L6.05062 5.17271C5.90771 5.02833 5.90771 4.79427 6.05062 4.64917C6.19354 4.50552 6.42615 4.50552 6.56833 4.64917L8.6151 6.7375C8.75802 6.8826 8.75802 7.11667 8.6151 7.26031L6.56833 9.34865C6.42615 9.49375 6.19354 9.49302 6.05062 9.34865C5.90771 9.205 5.90771 8.97094 6.05062 8.82583L7.72917 7ZM7 0C10.866 0 14 3.13396 14 7C14 10.8668 10.866 14 7 14C3.13396 14 0 10.8668 0 7C0 3.13396 3.13396 0 7 0ZM7 13.0915C10.3636 13.0915 13.0915 10.3644 13.0915 7C13.0915 3.63563 10.3636 0.908542 7 0.908542C3.6349 0.908542 0.908542 3.63563 0.908542 7C0.907812 10.3644 3.6349 13.0915 7 13.0915Z" fill="white" fill-opacity="0.7"/>
</svg>
